HIERARCHY
ROOT root
{
	OFFSET	0	13.1	24.9
	CHANNELS 6  Xposition Yposition Zposition Xrotation Yrotation Zrotation
	JOINT spine_1
	{
		OFFSET	0	9.99999	0
		CHANNELS 3  Xrotation Yrotation Zrotation
		JOINT spine_2
		{
			OFFSET	0	112	-10
			CHANNELS 3  Xrotation Yrotation Zrotation
			JOINT spine_3
			{
				OFFSET	0	206.5	19.3
				CHANNELS 3  Xrotation Yrotation Zrotation
				JOINT spine_4
				{
					OFFSET	0	110.4	14.6
					CHANNELS 3  Xrotation Yrotation Zrotation
					JOINT neck_1
					{
						OFFSET	0	71.8	-50.3
						CHANNELS 3  Xrotation Yrotation Zrotation
						JOINT neck_2
						{
							OFFSET	0	86.2	-25.8
							CHANNELS 3  Xrotation Yrotation Zrotation
							JOINT head_ee
							{
								OFFSET	0	179.8	-8.7
								CHANNELS 3  Xrotation Yrotation Zrotation
								End Site
								{
									OFFSET	1	0	0
								}
							}
						}
					}
					JOINT left_clavicle
					{
						OFFSET	-43.2	22.4	-70.8
						CHANNELS 3  Xrotation Yrotation Zrotation
						JOINT left_shoulder
						{
							OFFSET	-93.9	-5.79999	48.7
							CHANNELS 3  Xrotation Yrotation Zrotation
							JOINT left_elbow
							{
								OFFSET	-291.4	-30.8	15.2
								CHANNELS 3  Xrotation Yrotation Zrotation
								JOINT left_lowarm_twist
								{
									OFFSET	-110.7	-3.89999	13.6
									CHANNELS 3  Xrotation Yrotation Zrotation
									JOINT left_hand
									{
										OFFSET	-110.7	-3.89999	13.6
										CHANNELS 3  Xrotation Yrotation Zrotation
										JOINT left_ee
										{
											OFFSET	-80.8	-5.10001	12.1
											CHANNELS 3  Xrotation Yrotation Zrotation
											End Site
											{
												OFFSET	1	0	0
											}
										}
									}
								}
							}
						}
					}
					JOINT right_clavicle
					{
						OFFSET	43.2	22.4	-70.8
						CHANNELS 3  Xrotation Yrotation Zrotation
						JOINT right_shoulder
						{
							OFFSET	93.9	-5.79999	48.7
							CHANNELS 3  Xrotation Yrotation Zrotation
							JOINT right_elbow
							{
								OFFSET	291.4	-30.8	15.2
								CHANNELS 3  Xrotation Yrotation Zrotation
								JOINT right_lowarm_twist
								{
									OFFSET	110.7	-3.89999	13.6
									CHANNELS 3  Xrotation Yrotation Zrotation
									JOINT right_hand
									{
										OFFSET	110.7	-3.89999	13.6
										CHANNELS 3  Xrotation Yrotation Zrotation
										JOINT right_ee
										{
											OFFSET	80.8	-5.10001	12.1
											CHANNELS 3  Xrotation Yrotation Zrotation
											End Site
											{
												OFFSET	1	0	0
											}
										}
									}
								}
							}
						}
					}
				}
			}
		}
	}
	JOINT left_hip
	{
		OFFSET	-82.8	-127.5	0.300001
		CHANNELS 3  Xrotation Yrotation Zrotation
		JOINT left_knee
		{
			OFFSET	-28.2	-396.7	2.2
			CHANNELS 3  Xrotation Yrotation Zrotation
			JOINT left_ankle
			{
				OFFSET	-11.7	-411.3	35.4
				CHANNELS 3  Xrotation Yrotation Zrotation
				JOINT left_toes
				{
					OFFSET	0	-60	-88.6
					CHANNELS 3  Xrotation Yrotation Zrotation
					JOINT left_foot_ee
					{
						OFFSET	-22.5	-16.5	-42.2
						CHANNELS 3  Xrotation Yrotation Zrotation
						End Site
						{
							OFFSET	1	0	0
						}
					}
				}
			}
		}
	}
	JOINT right_hip
	{
		OFFSET	82.8	-127.5	0.300001
		CHANNELS 3  Xrotation Yrotation Zrotation
		JOINT right_knee
		{
			OFFSET	28.2	-396.7	2.2
			CHANNELS 3  Xrotation Yrotation Zrotation
			JOINT right_ankle
			{
				OFFSET	11.7	-411.3	35.4
				CHANNELS 3  Xrotation Yrotation Zrotation
				JOINT right_toes
				{
					OFFSET	0	-60	-88.6
					CHANNELS 3  Xrotation Yrotation Zrotation
					JOINT right_foot_ee
					{
						OFFSET	22.5	-16.5	-42.2
						CHANNELS 3  Xrotation Yrotation Zrotation
						End Site
						{
							OFFSET	1	0	0
						}
					}
				}
			}
		}
	}
}
MOTION
Frames: 6
Frame Time: 0.02
432.3 628.808 -1708.85 -67.2769 66.73 68.4584 7.72323 -0.479567 -0.176696 7.72313 -0.467352 -0.206855 7.72495 -0.450076 -0.242154 7.7252 -0.482671 -0.168032 0.45177 -9.32296 3.90904 0.860488 -19.772 3.35687 -0.0 0.0 -0.0 2.58183 2.43238 5.15001 -4.44845 -23.1681 73.0554 5.11639 -68.4426 3.48112 85.5071 -4.48734 -8.88924 -0.381063 3.4065 -1.08902 -0.0 0.0 -0.0 -3.25448 -25.3485 1.35632 -33.2932 42.9713 -64.625 1.42951 35.3017 -0.454884 7.11846 -0.195872 0.887618 -1.49698 -28.386 -2.96482 0.0 0.0 0.0 38.5063 11.4238 -2.38074 -18.2845 0.31211 2.77667 35.0105 -31.9655 -5.5366 -9.07876 0.0 0.0 -0.0 0.0 -0.0 44.33 17.5275 -9.34686 -20.8336 -0.284798 -3.1668 26.7376 -28.0124 3.79277 41.1243 -0.0 -0.0 0.0 0.0 0.0 
428.81 637.483 -1708.72 -66.0085 66.3375 67.2902 7.78783 -0.477134 -0.0761416 7.78771 -0.471322 -0.106349 7.78876 -0.461914 -0.141739 7.78905 -0.478502 -0.0670081 -1.49507 -10.2032 1.78729 -1.23402 -19.8026 0.649621 -0.0 0.0 -0.0 2.6041 3.96275 5.29715 -4.73641 -23.3043 73.287 4.61159 -66.3368 3.01504 84.9121 -4.416 -8.86207 -0.337743 3.10598 -0.93063 -0.0 0.0 -0.0 -3.30571 -25.5621 1.37939 -30.7367 41.8667 -65.9086 1.51702 36.9219 -0.506465 6.13637 -0.175434 0.763832 -1.41651 -28.8669 -3.6121 0.0 0.0 0.0 38.6002 11.0959 -1.91119 -19.3357 0.302951 2.9377 35.4317 -29.3821 -5.40466 -11.9933 0.0 0.0 -0.0 0.0 -0.0 47.8289 17.2697 -9.74433 -29.3169 -0.0696244 -4.44972 38.2947 -27.3634 5.0802 40.176 -0.0 -0.0 0.0 0.0 0.0 
428.002 629.846 -1706.83 -64.8124 66.2609 65.7519 7.96691 -0.472772 0.0120204 7.96679 -0.472579 -0.0180883 7.96714 -0.470017 -0.052367 7.96745 -0.472389 0.0225224 -3.32274 -9.91563 -0.127573 -3.19564 -17.9701 -1.60372 -0.0 0.0 -0.0 2.64152 4.90148 5.42858 -5.05978 -24.2112 73.5593 4.1229 -63.8934 2.57162 85.38 -4.47208 -8.8835 -0.815732 4.93642 -3.29395 -0.0 0.0 -0.0 -3.30428 -25.5097 1.38845 -26.9559 39.5886 -67.789 1.58035 38.0531 -0.545008 5.34983 -0.157536 0.664952 -1.34599 -29.0228 -4.05915 0.0 0.0 0.0 38.5489 10.9164 -1.62447 -20.0033 0.2956 3.03987 34.5711 -26.1681 -5.1187 -14.39 0.0 0.0 -0.0 0.0 -0.0 50.2829 17.2334 -9.72251 -34.9283 0.176025 -5.2754 42.9178 -27.2169 5.52193 39.7012 -0.0 -0.0 0.0 0.0 0.0 
425.77 629.525 -1703.6 -62.9156 65.0566 63.2424 8.32193 -0.470041 0.0746886 8.3218 -0.473841 0.0446267 8.32165 -0.475759 0.0130325 8.32196 -0.46773 0.0880079 -4.3834 -8.75833 -1.08247 -4.3206 -15.2346 -2.54547 -0.0 0.0 -0.0 2.38943 3.14437 4.8396 -6.93519 -25.3108 73.8183 3.8196 -62.1263 2.30132 85.5599 -4.49368 -8.89162 -1.42492 6.55462 -6.5722 -0.0 0.0 -0.0 -3.23989 -24.7951 1.4512 -25.1644 37.9227 -68.9412 1.63068 38.928 -0.576336 5.2947 -0.15623 0.658031 -1.28488 -28.7737 -4.27967 0.0 0.0 0.0 38.4268 10.8001 -1.41272 -20.4825 0.289591 3.11314 32.9656 -22.3953 -4.75757 -16.719 0.0 0.0 -0.0 0.0 -0.0 51.1023 17.408 -9.46738 -33.8662 0.123331 -5.12099 42.3589 -26.8669 5.45673 39.3456 -0.0 -0.0 0.0 0.0 0.0 
424.959 630.179 -1703.99 -61.6453 63.9731 61.5738 8.70194 -0.416577 0.106223 8.70185 -0.422492 0.0794994 8.70145 -0.426493 0.0540686 8.70168 -0.412601 0.120748 -5.03659 -8.01163 -1.58185 -4.99747 -13.5527 -3.00032 -0.0 0.0 -0.0 2.17498 2.76766 4.40935 -8.73148 -25.9551 74.1559 3.59875 -60.6947 2.10738 84.9932 -4.42571 -8.86582 -2.02281 8.45461 -9.60007 -0.0 0.0 -0.0 -3.77936 -24.1049 2.3267 -23.5488 36.8527 -70.0822 1.79522 41.6428 -0.682757 5.98566 -0.17211 0.744867 -1.29392 -29.1131 -4.37765 0.0 0.0 0.0 38.5124 9.49806 -0.887693 -20.313 0.291787 3.08723 30.8285 -19.5231 -4.40464 -18.3779 0.0 0.0 -0.0 0.0 -0.0 51.6181 17.5899 -9.5742 -33.12 0.0880296 -5.01194 40.7666 -26.9875 5.31099 39.1369 -0.0 -0.0 0.0 0.0 0.0 
421.0 626.947 -1706.07 -64.4329 64.0759 64.3698 8.87338 -0.319274 0.05131 8.87333 -0.321891 0.0308896 8.87326 -0.323127 0.0125375 8.8734 -0.317092 0.0634125 -5.05323 -8.01822 -1.59826 -5.01433 -13.5543 -3.01984 -0.0 0.0 -0.0 1.87955 3.55789 3.92013 -8.73447 -25.8753 74.1332 3.86859 -62.4265 2.34469 85.0144 -4.42825 -8.86679 -1.92435 7.02645 -9.63941 -0.0 0.0 -0.0 -4.00313 -24.0507 2.64395 -22.1969 38.0201 -70.5655 1.84611 42.4391 -0.716838 6.63371 -0.186049 0.826475 -1.27505 -29.1153 -4.47987 0.0 0.0 0.0 38.531 9.06364 -0.63372 -19.4562 0.301712 2.95614 30.6949 -21.1383 -4.45095 -18.1213 0.0 0.0 -0.0 0.0 -0.0 50.1797 18.2903 -9.45887 -32.8768 0.0768293 -4.9763 37.5796 -27.3651 5.00702 39.1419 -0.0 -0.0 0.0 0.0 0.0 
